<svg
  xmlns="http://www.w3.org/2000/svg"
  version="1.1">
  <defs>
    <style>
      .sprite{display:none;}
      .sprite:target{display:inline;}
    </style>
  </defs>
  <g
    class="sprite"
    id="tag1">
    <polygon
      points="1258.95 0 1258.88 41.96 1258.88 42 327.09 42 326.97 42 21.12 42 21.12 41.96 21.05 42 0 0 1.13 0 21.17 40 326.97 40 327.09 40 1258.88 40 1278.88 0 1280 0 1258.95 42" style="fill:rgba(255,255,255,.3)"/>
    <polygon
      points="327.09 40 326.97 40 21.17 40 1.13 0 326.97 0 327.09 0 1278.88 0 1258.88 40 327.09 40" style="fill:rgba(255,255,255,.3)"/>
  </g>
  <g
    class="sprite"
    id="tag1Current">
    <polygon points="1258.95 0 1258.88 0.04 1258.88 0 327.09 0 326.97 0 21.12 0 21.12 0.04 21.05 0 0 42 1.13 42 21.17 2 326.97 2 327.09 2 1258.88 2 1278.88 42 1280 42 1258.95 0" style="fill:rgba(0,200,100,1)"/>
    <polygon points="327.09 2 326.97 2 21.17 2 1.13 42 326.97 42 327.09 42 1278.88 42 1258.88 2 327.09 2" style="fill:rgba(255,255,255,0.15)"/>
  </g>
</svg>